# xmcd
#
# Track frame offsets: 
#        150
#        25344
#        56364
#        90354
#        115009
#        151104
#        182574
#        203554
#
# Disc length: 3084 seconds
#
# Revision: 2
# Processed by: cddbd v1.5.2PL0 Copyright (c) Steve Scherf et al.
# Submitted via: ExactAudioCopy v0.99pb5
#
DISCID=510c0a08
DTITLE=Karl Maddison - On The Road To Tibet
DYEAR=2006
DGENRE=New Age
TTITLE0=Wishing Wheel
TTITLE1=Pearls Of Wisdom
TTITLE2=Sacred Mountain
TTITLE3=Legend
TTITLE4=Namaste
TTITLE5=Friendship Highway
TTITLE6=Ritual Of Truth
TTITLE7=Nam-Tso
EXTD=YEAR: 2006
EXTT0=
EXTT1=
EXTT2=
EXTT3=
EXTT4=
EXTT5=
EXTT6=
EXTT7=
PLAYORDER=
